<svg aria-hidden="true" style="position: absolute; width: 0; height: 0; overflow: hidden;" version="1.1" xmlns="http://www.w3.org/2000/svg" xmlns:xlink="http://www.w3.org/1999/xlink">
<defs>
<symbol id="icon-android" viewBox="0 0 28 32">
<path fill="#fff" style="fill: var(--color1, #fff)" d="M5.261 24.204c0 0.836 0.708 1.518 1.578 1.518h1.804v4.3c0 1.089 0.908 1.979 2.023 1.979 1.119 0 2.023-0.886 2.023-1.979v-4.303h3.149v4.3c0 1.089 0.908 1.979 2.023 1.979 1.119 0 2.023-0.886 2.023-1.979v-4.3h1.804c0.871 0 1.578-0.682 1.578-1.518v-14.114h-18.005v14.117zM18.49 2.773l1.663-2.321c0.096-0.136 0.074-0.318-0.056-0.407-0.13-0.086-0.315-0.043-0.411 0.093l-1.726 2.414c-1.137-0.432-2.404-0.671-3.734-0.671s-2.597 0.239-3.734 0.671l-1.726-2.411c-0.096-0.136-0.282-0.182-0.411-0.093-0.13 0.086-0.152 0.264-0.056 0.407l1.663 2.321c-2.645 1.186-4.497 3.432-4.735 6.057h18.005c-0.245-2.628-2.101-4.875-4.742-6.060zM10.425 6.433c-0.197 0-0.39-0.056-0.554-0.162s-0.292-0.256-0.367-0.431c-0.075-0.176-0.095-0.369-0.057-0.555s0.133-0.358 0.273-0.492 0.317-0.226 0.51-0.263c0.193-0.037 0.394-0.018 0.576 0.055s0.338 0.196 0.447 0.354 0.168 0.344 0.168 0.534c-0.001 0.255-0.106 0.499-0.293 0.679s-0.44 0.281-0.704 0.282zM18.145 6.433c-0.197 0-0.39-0.056-0.554-0.162s-0.292-0.256-0.367-0.431c-0.075-0.176-0.095-0.369-0.057-0.555s0.133-0.358 0.273-0.492 0.317-0.226 0.51-0.263c0.193-0.037 0.394-0.018 0.576 0.055s0.338 0.196 0.447 0.354 0.168 0.344 0.168 0.534c-0.001 0.255-0.106 0.499-0.293 0.679s-0.44 0.281-0.704 0.282zM26.422 10.030c-1.119 0-2.023 0.886-2.023 1.979v7.728c0 1.089 0.908 1.979 2.023 1.979 1.119 0 2.023-0.886 2.023-1.979v-7.732c0.004-1.093-0.9-1.975-2.023-1.975zM2.023 10.030c-1.119 0-2.023 0.886-2.023 1.979v7.728c0 1.089 0.908 1.979 2.023 1.979 1.119 0 2.023-0.886 2.023-1.979v-7.732c0-1.093-0.908-1.975-2.023-1.975z"></path>
</symbol>
<symbol id="icon-apple" viewBox="0 0 36 32">
<path fill="#fff" style="fill: var(--color1, #fff)" d="M26.408 0c-3.734 0-5.312 1.794-7.913 1.794-2.666 0-4.7-1.781-7.936-1.781-3.167 0-6.545 1.947-8.69 5.264-3.012 4.677-2.501 13.486 2.377 20.991 1.745 2.686 4.075 5.699 7.131 5.732h0.056c2.656 0 3.445-1.751 7.101-1.772h0.056c3.601 0 4.323 1.761 6.968 1.761h0.056c3.056-0.033 5.511-3.371 7.256-6.047 1.256-1.925 1.723-2.891 2.686-5.068-7.056-2.697-8.19-12.768-1.211-16.63-2.13-2.686-5.123-4.241-7.945-4.241l0.009-0.004z"></path>
</symbol>
<symbol id="icon-twitter" viewBox="0 0 32 32">
<path fill="#f4f4fd" style="fill: var(--color2, #f4f4fd)" d="M32 6.079c-1.189 0.521-2.457 0.867-3.78 1.036 1.36-0.817 2.382-2.079 2.874-3.581l0.013-0.046c-1.197 0.723-2.591 1.274-4.076 1.574l-0.084 0.014c-1.2-1.28-2.901-2.078-4.789-2.078-3.622 0-6.559 2.936-6.559 6.559 0 0.002 0 0.003 0 0.005v-0c0 0.52 0.044 1.021 0.152 1.497-5.455-0.267-10.28-2.88-13.523-6.863-0.563 0.95-0.896 2.094-0.897 3.316v0c0 2.272 1.169 4.287 2.913 5.453-1.093-0.031-2.109-0.328-2.996-0.827l0.032 0.017v0.072c0.004 3.164 2.237 5.806 5.213 6.439l0.043 0.008c-0.533 0.147-1.116 0.216-1.72 0.216-0.031 0.001-0.067 0.001-0.104 0.001-0.403 0-0.797-0.041-1.176-0.119l0.037 0.006c0.851 2.597 3.263 4.507 6.131 4.569-2.215 1.745-5.045 2.799-8.121 2.799-0.004 0-0.009 0-0.013 0h0.001c-0.539 0-1.055-0.024-1.571-0.091 2.826 1.846 6.287 2.944 10.004 2.944 0.021 0 0.042-0 0.063-0h-0.003c12.072 0 18.672-10 18.672-18.667 0-0.291-0.011-0.571-0.024-0.849 1.299-0.936 2.39-2.064 3.258-3.356l0.030-0.047z"></path>
</symbol>
<symbol id="icon-linkedin" viewBox="0 0 32 32">
<path fill="#f4f4fd" style="fill: var(--color2, #f4f4fd)" d="M31.992 32h0.008v-11.737c0-5.741-1.236-10.164-7.948-10.164-3.227 0-5.392 1.771-6.276 3.449h-0.093v-2.913h-6.364v21.365h6.627v-10.579c0-2.785 0.528-5.479 3.977-5.479 3.399 0 3.449 3.179 3.449 5.657v10.4h6.62zM0.528 10.636h6.635v21.364h-6.635v-21.364zM3.843 0c-2.122 0.001-3.842 1.721-3.843 3.843v0c0 2.121 1.721 3.88 3.843 3.88s3.843-1.759 3.843-3.88c-0.002-2.122-1.721-3.841-3.843-3.843h-0z"></path>
</symbol>
<symbol id="icon-facebook" viewBox="0 0 32 32">
<path fill="#f4f4fd" style="fill: var(--color2, #f4f4fd)" d="M21.329 5.313h2.921v-5.087c-0.504-0.071-2.237-0.227-4.256-0.227-4.212 0-7.097 2.649-7.097 7.52v4.48h-4.648v5.688h4.648v14.312h5.699v-14.311h4.46l0.708-5.688h-5.169v-3.919c0.001-1.644 0.444-2.769 2.735-2.769z"></path>
</symbol>
</defs>
</svg>
