<svg aria-hidden="true" style="position: absolute; width: 0; height: 0; overflow: hidden;" version="1.1" xmlns="http://www.w3.org/2000/svg" xmlns:xlink="http://www.w3.org/1999/xlink">
<defs>
<symbol id="icon-instagram" viewBox="0 0 32 32">
<path fill="#fff" style="fill: var(--color1, #fff)" d="M7.409 31.111h-6.45v-20.771h6.45v20.771zM4.18 7.507c-2.062 0-3.736-1.709-3.736-3.771 0-0.991 0.394-1.941 1.094-2.641s1.651-1.094 2.641-1.094c0.991 0 1.941 0.394 2.641 1.094s1.094 1.651 1.094 2.641c0 2.062-1.673 3.771-3.736 3.771zM31.549 31.111h-6.436v-10.111c0-2.41-0.049-5.5-3.353-5.5-3.353 0-3.868 2.618-3.868 5.327v10.284h-6.443v-20.771h6.186v2.833h0.090c0.861-1.632 2.964-3.354 6.102-3.354 6.528 0 7.728 4.299 7.728 9.882v11.41h-0.006z"></path>
</symbol>
<symbol id="icon-twitter" viewBox="0 0 38 32">
<path fill="#fff" style="fill: var(--color1, #fff)" d="M38.045 1.065c-1.579 1.114-3.327 1.965-5.176 2.522-0.993-1.142-2.312-1.951-3.78-2.318s-3.013-0.275-4.426 0.265c-1.414 0.539-2.627 1.5-3.477 2.752s-1.295 2.734-1.274 4.247v1.649c-2.897 0.075-5.768-0.567-8.356-1.87s-4.815-3.226-6.48-5.597c0 0-6.594 14.836 8.242 21.43-3.395 2.305-7.439 3.46-11.539 3.297 14.836 8.242 32.97 0 32.97-18.958-0.002-0.459-0.046-0.917-0.132-1.368 1.683-1.659 2.87-3.754 3.429-6.050z"></path>
</symbol>
<symbol id="icon-facebook" viewBox="0 0 18 32">
<path fill="#fff" style="fill: var(--color1, #fff)" d="M17.778 1.185h-4.444c-1.965 0-3.849 0.78-5.238 2.17s-2.17 3.273-2.17 5.238v4.444h-4.444v5.926h4.444v11.852h5.926v-11.852h4.444l1.482-5.926h-5.926v-4.444c0-0.393 0.156-0.77 0.434-1.048s0.655-0.434 1.048-0.434h4.444v-5.926z"></path>
</symbol>
<symbol id="icon-android" viewBox="0 0 28 32">
<path fill="#fff" style="fill: var(--color1, #fff)" d="M5.261 24.204c0 0.836 0.708 1.518 1.578 1.518h1.804v4.3c0 1.089 0.908 1.979 2.023 1.979 1.119 0 2.023-0.886 2.023-1.979v-4.303h3.149v4.3c0 1.089 0.908 1.979 2.023 1.979 1.119 0 2.023-0.886 2.023-1.979v-4.3h1.804c0.871 0 1.578-0.682 1.578-1.518v-14.114h-18.005v14.117zM18.49 2.773l1.663-2.321c0.096-0.136 0.074-0.318-0.056-0.407-0.13-0.086-0.315-0.043-0.411 0.093l-1.726 2.414c-1.137-0.432-2.404-0.671-3.734-0.671s-2.597 0.239-3.734 0.671l-1.726-2.411c-0.096-0.136-0.282-0.182-0.411-0.093-0.13 0.086-0.152 0.264-0.056 0.407l1.663 2.321c-2.645 1.186-4.497 3.432-4.735 6.057h18.005c-0.245-2.628-2.101-4.875-4.742-6.060zM10.425 6.433c-0.197 0-0.39-0.056-0.554-0.162s-0.292-0.256-0.367-0.431c-0.075-0.176-0.095-0.369-0.057-0.555s0.133-0.358 0.273-0.492 0.317-0.226 0.51-0.263c0.193-0.037 0.394-0.018 0.576 0.055s0.338 0.196 0.447 0.354 0.168 0.344 0.168 0.534c-0.001 0.255-0.106 0.499-0.293 0.679s-0.44 0.281-0.704 0.282zM18.145 6.433c-0.197 0-0.39-0.056-0.554-0.162s-0.292-0.256-0.367-0.431c-0.075-0.176-0.095-0.369-0.057-0.555s0.133-0.358 0.273-0.492 0.317-0.226 0.51-0.263c0.193-0.037 0.394-0.018 0.576 0.055s0.338 0.196 0.447 0.354 0.168 0.344 0.168 0.534c-0.001 0.255-0.106 0.499-0.293 0.679s-0.44 0.281-0.704 0.282zM26.422 10.030c-1.119 0-2.023 0.886-2.023 1.979v7.728c0 1.089 0.908 1.979 2.023 1.979 1.119 0 2.023-0.886 2.023-1.979v-7.732c0.004-1.093-0.9-1.975-2.023-1.975zM2.023 10.030c-1.119 0-2.023 0.886-2.023 1.979v7.728c0 1.089 0.908 1.979 2.023 1.979 1.119 0 2.023-0.886 2.023-1.979v-7.732c0-1.093-0.908-1.975-2.023-1.975z"></path>
</symbol>
<symbol id="icon-apple" viewBox="0 0 36 32">
<path fill="#fff" style="fill: var(--color1, #fff)" d="M26.408 0c-3.734 0-5.312 1.794-7.913 1.794-2.666 0-4.7-1.781-7.936-1.781-3.167 0-6.545 1.947-8.69 5.264-3.012 4.677-2.501 13.486 2.377 20.991 1.745 2.686 4.075 5.699 7.131 5.732h0.056c2.656 0 3.445-1.751 7.101-1.772h0.056c3.601 0 4.323 1.761 6.968 1.761h0.056c3.056-0.033 5.511-3.371 7.256-6.047 1.256-1.925 1.723-2.891 2.686-5.068-7.056-2.697-8.19-12.768-1.211-16.63-2.13-2.686-5.123-4.241-7.945-4.241l0.009-0.004z"></path>
</symbol>
<symbol id="icon-menshe" viewBox="0 0 18 32">
<path fill="#fff" style="fill: var(--color1, #fff)" d="M0.914 26.286l10.286-10.286-10.286-10.286 2.057-4.114 14.4 14.4-14.4 14.4-2.057-4.114z"></path>
</symbol>
</defs>
</svg>
